<svg width="71" height="80" viewBox="0 0 71 80" fill="none" xmlns="http://www.w3.org/2000/svg">
<g clip-path="url(#clip0_44_2)">
<path d="M0 15C0 6.71875 6.74566 0 15.0601 0H60.2403H65.2603C68.037 0 70.2804 2.23438 70.2804 5V55C70.2804 57.7656 68.037 60 65.2603 60V70C68.037 70 70.2804 72.2344 70.2804 75C70.2804 77.7656 68.037 80 65.2603 80H60.2403H15.0601C6.74566 80 0 73.2812 0 65V15ZM10.0401 65C10.0401 67.7656 12.2834 70 15.0601 70H55.2203V60H15.0601C12.2834 60 10.0401 62.2344 10.0401 65ZM24.2216 28.375L20.8959 25.0625C20.4252 26.6406 20.0958 28.2812 20.0958 30C20.0958 30.0312 20.0958 30.0781 20.1115 30.125C20.1272 30.1719 20.1272 30.2031 20.1272 30.25L25.9159 35.3125C26.3081 35.6406 26.4493 36.2188 26.2767 36.7031C26.0728 37.1719 25.6335 37.5 25.1001 37.5C24.8021 37.4844 24.504 37.375 24.2844 37.1875L20.5821 33.9688C22.4019 41.7188 29.3201 47.5 37.6502 47.5C45.9803 47.5 52.9142 41.7188 54.734 33.9688L51.0317 37.1875C50.8121 37.375 50.514 37.5 50.2003 37.5C49.8551 37.4844 49.51 37.3281 49.259 37.0625C49.0551 36.8281 48.9609 36.5312 48.9453 36.25C48.9609 35.9062 49.1178 35.5625 49.3688 35.3125L55.1889 30.2344C55.1889 30.1875 55.1889 30.1562 55.2046 30.1094C55.2203 30.0625 55.2203 30.0312 55.2203 29.9844C55.2203 28.2656 54.8909 26.625 54.4202 25.0469L51.0945 28.3594C50.6081 28.8438 49.8238 28.8438 49.3218 28.3594C48.8198 27.875 48.8354 27.0938 49.3218 26.6094L53.4633 22.4688C51.8945 19.2344 49.3688 16.5312 46.1842 14.7812C48.8511 19.0156 47.9099 24.5938 43.988 27.6875C46.1999 29.9688 46.9843 33.2969 46.0431 36.3125C45.1175 39.3438 42.5918 41.6406 39.47 42.2969L39.2503 36.9375L41.227 38.2812C41.3211 38.3438 41.4623 38.375 41.5878 38.375C41.8231 38.375 42.0113 38.25 42.1368 38.0625C42.2624 37.875 42.231 37.625 42.1212 37.4375L40.7877 35.2188L43.6115 34.6562C43.8939 34.5938 44.0978 34.3281 44.0978 34.0312C44.0978 33.7344 43.8782 33.4844 43.6115 33.4219L40.7877 32.8438L42.1212 30.6094C42.2467 30.4219 42.2624 30.1562 42.1368 29.9688C42.0113 29.7812 41.8231 29.6562 41.5878 29.6562H41.5721C41.4623 29.6719 41.3368 29.7031 41.2427 29.7656L39.0307 31.2656L38.2777 13.7344C38.262 13.3906 37.9796 13.125 37.6502 13.125C37.3208 13.125 37.0384 13.375 37.0227 13.7344L36.3011 31.0469L34.4186 29.7812C34.1832 29.6094 33.8538 29.6406 33.6342 29.8438C33.4146 30.0469 33.3832 30.375 33.5087 30.625L34.8578 32.8594L32.034 33.4375C31.7517 33.5 31.5477 33.75 31.5477 34.0469C31.5477 34.3438 31.7674 34.6094 32.034 34.6719L34.8578 35.2656L33.5087 37.4844C33.4773 37.5781 33.4302 37.7031 33.4302 37.7969C33.4302 37.9688 33.5087 38.125 33.6185 38.2656C33.744 38.3594 33.9009 38.4219 34.0577 38.4219C34.1676 38.4219 34.3087 38.3906 34.4029 38.3281L36.0344 37.2188L35.8148 42.3438C32.6929 41.7031 30.1672 39.3906 29.2417 36.3594C28.3004 33.3281 29.0848 30.0312 31.2967 27.7344C27.3748 24.625 26.4336 19.0625 29.1005 14.8281C25.9473 16.5781 23.3902 19.2812 21.8214 22.5156L25.9629 26.6562C26.4493 27.1406 26.4493 27.9219 25.9629 28.4062C25.4766 28.8906 24.6923 28.8906 24.2059 28.4062L24.2216 28.375Z" fill="#5A0000"/>
</g>
<defs>
<clipPath id="clip0_44_2">
<rect width="70.2804" height="80" fill="white"/>
</clipPath>
</defs>
</svg>
