<svg width="40" height="40" viewBox="0 0 40 40" fill="none" xmlns="http://www.w3.org/2000/svg">
<circle cx="20" cy="20" r="20" fill="#F5F5F5"/>
<path d="M14.4769 29H10.3304V15.647H14.4769V29ZM12.4014 13.8256C11.0755 13.8256 10 12.7273 10 11.4014C10 10.7645 10.253 10.1537 10.7034 9.70335C11.1537 9.253 11.7645 9 12.4014 9C13.0383 9 13.6491 9.253 14.0994 9.70335C14.5498 10.1537 14.8028 10.7645 14.8028 11.4014C14.8028 12.7273 13.7269 13.8256 12.4014 13.8256ZM29.996 29H25.8584V22.4999C25.8584 20.9507 25.8271 18.9641 23.7025 18.9641C21.5467 18.9641 21.2163 20.6471 21.2163 22.3882V29H17.0743V15.647H21.0511V17.4685H21.1092C21.6628 16.4194 23.015 15.3122 25.0325 15.3122C29.229 15.3122 30.0004 18.0756 30.0004 21.665V29H29.996Z" fill="#5A0000"/>
</svg>
