<svg width="30" height="31" viewBox="0 0 30 31" fill="none" xmlns="http://www.w3.org/2000/svg">
<path d="M29.3145 26.6678L22.3008 19.6549C23.8957 17.2874 24.6826 14.3293 24.2614 11.1773C23.543 5.81595 19.1484 1.45294 13.7812 0.773503C5.80132 -0.236135 -0.90886 6.4733 0.100948 14.4523C0.780638 19.8213 5.14472 24.2189 10.5072 24.9336C13.6596 25.3548 16.6186 24.5683 18.9858 22.9733L25.9995 29.9862C26.9147 30.9014 28.3989 30.9014 29.3141 29.9862C30.2286 29.0699 30.2286 27.5818 29.3145 26.6678ZM4.63472 12.8588C4.63472 8.72365 7.99918 5.35956 12.1347 5.35956C16.2703 5.35956 19.6348 8.72365 19.6348 12.8588C19.6348 16.9939 16.2703 20.358 12.1347 20.358C7.99918 20.358 4.63472 16.995 4.63472 12.8588Z" fill="#A1743D"/>
</svg>
