<svg width="40" height="40" viewBox="0 0 40 40" fill="none" xmlns="http://www.w3.org/2000/svg">
<circle cx="20" cy="20" r="20" fill="#F5F5F5"/>
<path d="M29.5331 15.2578C29.5483 15.471 29.5483 15.6842 29.5483 15.8974C29.5483 22.3999 24.5991 29.8923 15.5533 29.8923C12.7665 29.8923 10.1777 29.0852 8 27.6842C8.39595 27.7299 8.77663 27.7451 9.18782 27.7451C11.4873 27.7451 13.6041 26.9685 15.2944 25.6436C13.132 25.5979 11.3198 24.1817 10.6954 22.2324C11 22.2781 11.3046 22.3085 11.6244 22.3085C12.066 22.3085 12.5077 22.2476 12.9188 22.1411C10.665 21.6842 8.97458 19.7045 8.97458 17.3136V17.2527C9.62938 17.6182 10.3909 17.8466 11.1979 17.8771C9.87304 16.9938 9.00505 15.4862 9.00505 13.7806C9.00505 12.8669 9.24866 12.0293 9.67508 11.2984C12.0964 14.2831 15.736 16.2323 19.8172 16.4456C19.7411 16.0801 19.6954 15.6994 19.6954 15.3187C19.6954 12.608 21.8883 10.3999 24.6142 10.3999C26.0304 10.3999 27.3096 10.9938 28.2081 11.9532C29.3198 11.74 30.3858 11.3288 31.33 10.7654C30.9644 11.9075 30.1878 12.8669 29.1675 13.476C30.1574 13.3695 31.1168 13.0953 32 12.7146C31.3301 13.6892 30.4924 14.5572 29.5331 15.2578Z" fill="#5A0000"/>
</svg>
