<svg width="40" height="40" viewBox="0 0 40 40" fill="none" xmlns="http://www.w3.org/2000/svg">
<circle cx="20" cy="20" r="20" fill="#F5F5F5"/>
<path d="M33.4149 14.0804C33.0929 12.8679 32.1441 11.913 30.9394 11.5889C28.7558 11 20 11 20 11C20 11 11.2442 11 9.06058 11.5889C7.8559 11.913 6.90711 12.8679 6.58509 14.0804C6 16.2782 6 20.8636 6 20.8636C6 20.8636 6 25.4491 6.58509 27.6468C6.90711 28.8594 7.8559 29.7745 9.06058 30.0986C11.2442 30.6875 20 30.6875 20 30.6875C20 30.6875 28.7558 30.6875 30.9394 30.0986C32.1441 29.7745 33.0929 28.8594 33.4149 27.6468C34 25.4491 34 20.8636 34 20.8636C34 20.8636 34 16.2782 33.4149 14.0804V14.0804ZM17.1363 25.0269V16.7004L24.4545 20.8637L17.1363 25.0269V25.0269Z" fill="#5A0000"/>
</svg>
